HIERARCHY
ROOT Hips
{
  OFFSET 47.6147 84.0721 2.72629
  CHANNELS 6 Xposition Yposition Zposition Zrotation Xrotation Yrotation
  JOINT spine
  {
    OFFSET 0 6.2448 0.359107
    CHANNELS 3 Zrotation Xrotation Yrotation
    JOINT spine1
    {
      OFFSET 0 9.06941 0
      CHANNELS 3 Zrotation Xrotation Yrotation
      JOINT spine2
      {
        OFFSET 0 8.69014 0
        CHANNELS 3 Zrotation Xrotation Yrotation
        JOINT Neck
        {
          OFFSET 0 22.3112 1.06372
          CHANNELS 3 Zrotation Xrotation Yrotation
          JOINT Head
          {
            OFFSET 0 6.74081 0
            CHANNELS 3 Zrotation Xrotation Yrotation
            End Site
            {
              OFFSET 0 16.3165 -5.38097
            }
          }
        }
        JOINT RightShoulder
        {
          OFFSET -3.65916 9.38468 -0.509514
          CHANNELS 3 Zrotation Xrotation Yrotation
          JOINT RightArm
          {
            OFFSET 0 12.3089 0
            CHANNELS 3 Zrotation Xrotation Yrotation
            JOINT RightArmRoll
            {
              OFFSET 0 6.21375 0
              CHANNELS 3 Zrotation Xrotation Yrotation
              JOINT RightForeArm
              {
                OFFSET 0 18.0985 0
                CHANNELS 3 Zrotation Xrotation Yrotation
                JOINT RightForeArmRoll
                {
                  OFFSET 0 6.97279 0
                  CHANNELS 3 Zrotation Xrotation Yrotation
                  JOINT RightHand
                  {
                    OFFSET 0 13.9929 0
                    CHANNELS 3 Zrotation Xrotation Yrotation
                    End Site
                    {
                      OFFSET 0 0 0
                    }
                  }
                }
              }
            }
          }
        }
        JOINT LeftShoulder
        {
          OFFSET 3.65916 9.38468 -0.509514
          CHANNELS 3 Zrotation Xrotation Yrotation
          JOINT LeftArm
          {
            OFFSET 0 12.3089 0
            CHANNELS 3 Zrotation Xrotation Yrotation
            JOINT LeftArmRoll
            {
              OFFSET 0 6.21375 0
              CHANNELS 3 Zrotation Xrotation Yrotation
              JOINT LeftForeArm
              {
                OFFSET 0 18.0985 0
                CHANNELS 3 Zrotation Xrotation Yrotation
                JOINT LeftForeArmRoll
                {
                  OFFSET 0 6.97279 0
                  CHANNELS 3 Zrotation Xrotation Yrotation
                  JOINT LeftHand
                  {
                    OFFSET 0 13.9929 0
                    CHANNELS 3 Zrotation Xrotation Yrotation
                    End Site
                    {
                      OFFSET 0 0 0
                    }
                  }
                }
              }
            }
          }
        }
      }
    }
  }
  JOINT RightUpLeg
  {
    OFFSET -5.53516 -1.015 -0.851454
    CHANNELS 3 Zrotation Xrotation Yrotation
    JOINT RightUpLegRoll
    {
      OFFSET 0 16.4075 0
      CHANNELS 3 Zrotation Xrotation Yrotation
      JOINT RightLeg
      {
        OFFSET 0 -20.3181 0
        CHANNELS 3 Zrotation Xrotation Yrotation
        JOINT RightLegRoll
        {
          OFFSET 0 20.3846 0
          CHANNELS 3 Zrotation Xrotation Yrotation
          JOINT RightFoot
          {
            OFFSET 0 16.9668 0
            CHANNELS 3 Zrotation Xrotation Yrotation
            JOINT RightToeBase
            {
              OFFSET 0 14.1834 0
              CHANNELS 3 Zrotation Xrotation Yrotation
              End Site
              {
                OFFSET 0.0060118 6.86889 -0.791746
              }
            }
          }
        }
      }
    }
  }
  JOINT LeftUpLeg
  {
    OFFSET 5.53516 -1.015 -0.851454
    CHANNELS 3 Zrotation Xrotation Yrotation
    JOINT LeftUpLegRoll
    {
      OFFSET 0 16.4076 0
      CHANNELS 3 Zrotation Xrotation Yrotation
      JOINT LeftLeg
      {
        OFFSET 0 20.3181 0
        CHANNELS 3 Zrotation Xrotation Yrotation
        JOINT LeftLegRoll
        {
          OFFSET 0 20.5731 0
          CHANNELS 3 Zrotation Xrotation Yrotation
          JOINT LeftFoot
          {
            OFFSET 0 16.7783 0
            CHANNELS 3 Zrotation Xrotation Yrotation
            JOINT LeftToeBase
            {
              OFFSET 0 14.1834 0
              CHANNELS 3 Zrotation Xrotation Yrotation
              End Site
              {
                OFFSET -0.0269423 6.86889 -0.791746
              }
            }
          }
        }
      }
    }
  }
}
MOTION
Frames: 4
Frame Time: 0.00208333
43.7734 83.8285 -5.19516 0.41426 2.24386 -3.58662 -0.0530749 -0.969269 -0.0192774 -0.105916 2.0643 -0.0325683 -0.105625 3.70937 -0.0308129 0.432048 0.710223 0.602933 0.303245 1.88489 0.72644 64.2061 -1.26935 -1.30392 106.835 8.41551 7.90983 -1.63846e-006 3.45539e-007 1.06126e-005 11.9609 10.7567 -1.58095 2.08268e-007 -2.15617e-006 -3 8.02889 -4.95139 0.697665 -62.1232 -8.78018 5.50368 -110.853 5.85453 -14.5388 2.18663e-015 -1.98785e-015 6.36111e-015 -4.85439 19.0381 1.38971 6.78216e-006 -4.97461e-006 3.00001 -8.02961 -4.95148 -0.697701 176.093 9.93007 0.424131 180 7.01606e-015 179.22 179.618 14.0056 178.878 3.76049e-006 -5.42252e-006 0.0936954 -15.8552 69.6832 20.8338 8.13123 25.233 -3.48549 -176.622 2.09346 -1.95729 4.54188e-006 -4.6773e-006 -1.04217 -0.446678 -13.4157 0.764837 -5.42409e-006 -3.51181e-006 -0.582882 28.2309 75.8067 -29.6691 -8.14346 25.4104 3.24801 
43.7707 83.8275 -5.18792 0.412309 2.26797 -3.57624 -0.0490044 -0.971927 -0.0164522 -0.0973049 2.05899 -0.0274092 -0.0970675 3.70405 -0.0257947 0.384852 0.760711 0.596648 0.354196 1.83088 0.713657 64.1456 -1.27256 -1.29945 106.881 8.32785 8.01799 -1.63846e-006 3.45539e-007 1.06126e-005 11.8855 10.6975 -1.57165 2.08268e-007 -2.15617e-006 -3 8.02889 -4.95139 0.697665 -62.1725 -8.71876 5.46843 -110.787 5.82495 -14.6815 -1.98785e-016 0 6.36111e-015 -4.76098 18.8587 1.36515 6.78216e-006 -4.97461e-006 3.00001 -8.02961 -4.95148 -0.697701 176.106 9.93865 0.40912 180 7.01606e-015 179.22 179.629 13.9976 178.876 3.76049e-006 -5.42252e-006 0.0936936 -15.8589 69.6913 20.8405 8.13123 25.233 -3.48549 -176.633 2.12177 -1.93163 4.54188e-006 -4.6773e-006 -1.04216 -0.419507 -13.4373 0.770524 -5.42409e-006 -3.51181e-006 -0.584655 28.2501 75.8163 -29.6889 -8.14369 25.4138 3.24351 
43.7735 83.8298 -5.16433 0.410443 2.29229 -3.56565 -0.044855 -0.974695 -0.0135381 -0.0885047 2.05345 -0.0220888 -0.0883227 3.69851 -0.0206184 0.336126 0.811971 0.590227 0.40649 1.77657 0.700488 64.084 -1.27621 -1.29512 106.927 8.23926 8.12763 -1.63846e-006 3.45539e-007 1.06126e-005 11.809 10.6373 -1.56219 2.08268e-007 -2.15617e-006 -3 8.02889 -4.95139 0.697665 -62.2232 -8.65631 5.43263 -110.719 5.7955 -14.826 -2.3059e-014 -1.07344e-014 9.54166e-015 -4.66685 18.677 1.34028 6.78216e-006 -4.97461e-006 3.00001 -8.02961 -4.95148 -0.697701 176.119 9.94715 0.393807 180 7.01606e-015 179.22 179.64 13.9884 178.873 3.76049e-006 -5.42252e-006 0.0936909 -15.861 69.6987 20.8465 8.13123 25.233 -3.48549 -176.645 2.14972 -1.90445 4.54188e-006 -4.6773e-006 -1.04214 -0.390898 -13.4574 0.776515 -5.42409e-006 -3.51181e-006 -0.586418 28.2691 75.8257 -29.7086 -8.1439 25.4169 3.2393 
43.7644 83.8271 -5.15479 0.408634 2.31677 -3.55489 -0.0406503 -0.977539 -0.0105617 -0.0795716 2.04776 -0.0166555 -0.0794464 3.69283 -0.0153313 0.286333 0.863772 0.583709 0.459718 1.72206 0.687051 64.0215 -1.28017 -1.29089 106.974 8.15002 8.23831 -1.63846e-006 3.45539e-007 1.06126e-005 11.7319 10.5764 -1.5526 2.08268e-007 -2.15617e-006 -3 8.02889 -4.95139 0.697665 -62.2748 -8.59315 5.39644 -110.65 5.76614 -14.9716 -8.74653e-015 -3.57812e-015 6.36111e-015 -4.57227 18.4938 1.31522 6.78216e-006 -4.97461e-006 3.00001 -8.02961 -4.95148 -0.697701 176.132 9.95561 0.378283 180 7.01606e-015 179.219 179.653 13.9786 178.871 3.76049e-006 -5.42252e-006 0.0936876 -15.862 69.7056 20.8521 8.13123 25.233 -3.48549 -176.657 2.17742 -1.87622 4.54188e-006 -4.6773e-006 -1.04212 -0.361282 -13.4765 0.782718 -5.42409e-006 -3.51181e-006 -0.588175 28.2881 75.8351 -29.7281 -8.14411 25.4199 3.2353 
